#!OML:ASF I:\Actors\actors\Patient Classification 2\Patient 1\Session 1\actor1.ASF
:FULLY-SPECIFIED
:DEGREES
886
root -0.322475 18.7608 5.19532 7.80523 -3.31131 0.480897
lowerback 24.7377 0.746257 -0.161638
upperback 10.9773 0.844424 -0.934224
thorax -1.63887 0.426409 -1.12701
lowerneck -23.3669 -1.36204 -1.36353
upperneck 17.2589 -1.9313 2.33607
head 9.31011 -0.714901 0.753635
rclavicle -1.68967e-015 3.03147e-015
rhumerus 18.7148 82.4393 -71.8288
rradius 110.785
rwrist -38.0536
rhand 24.751 -23.5845
rfingers 7.12502
rthumb 48.9325 -45.3502
lclavicle -1.68967e-015 3.03147e-015
lhumerus -47.3164 -62.0333 143.434
lradius 122.084
lwrist 20.5232
lhand 0.597194 -17.5467
lfingers 7.12502
lthumb 26.1623 10.6706
rfemur -5.39152 2.83525 11.7578
rtibia 5.83303
rfoot -14.9795 -11.7938
rtoes -14.8984
lfemur -18.8961 3.02802 -16.1422
ltibia 28.6613
lfoot -16.7107 5.63053
ltoes -56.3223
887
root -0.315942 18.7541 5.17257 7.89061 -1.94511 -0.0670074
lowerback 24.9045 -0.0155829 0.492689
upperback 10.9477 0.0498791 -0.412313
thorax -1.76523 0.0442203 -0.737915
lowerneck -23.7686 -1.04945 -0.974772
upperneck 17.3344 -1.53356 1.89294
head 9.39044 -0.553081 0.593483
rclavicle 1.09332e-015 6.95746e-015
rhumerus 14.0618 81.7958 -77.1843
rradius 110.776
rwrist -37.6535
rhand 24.2058 -23.1972
rfingers 7.12502
rthumb 48.431 -45.2064
lclavicle 1.09332e-015 6.95746e-015
lhumerus -48.3844 -61.9521 143.73
lradius 122.183
lwrist 20.9886
lhand 1.1614 -17.132
lfingers 7.12502
lthumb 26.7023 11.0042
rfemur -5.00036 1.5579 12.4144
rtibia 5.23619
rfoot -14.6607 -11.9097
rtoes -14.4225
lfemur -19.5079 1.74056 -15.4626
ltibia 29.0598
lfoot -16.6217 5.72378
ltoes -56.373
888
root -0.341716 18.75 5.16431 7.66758 -0.312161 -0.714314
lowerback 25.2776 -0.738298 0.745242
upperback 11.0273 -0.761994 0.378428
thorax -1.85911 -0.365625 0.18098
lowerneck -24.0846 -0.65241 -0.578433
upperneck 17.2313 -0.956555 1.15967
head 9.39267 -0.344719 0.357601
rclavicle -5.26779e-015 1.08586e-014
rhumerus 8.51974 80.6619 -83.5902
rradius 110.722
rwrist -36.7401
rhand 24.3142 -23.0073
rfingers 7.12502
rthumb 48.5308 -44.9686
lclavicle -5.26779e-015 1.08586e-014
lhumerus -49.7021 -62.0235 144.166
lradius 122.325
lwrist 21.8408
lhand 1.97955 -16.3934
lfingers 7.12502
lthumb 27.485 11.6209
rfemur -3.91936 0.0770113 13.347
rtibia 4.23296
rfoot -14.3297 -11.9793
rtoes -13.6552
lfemur -19.7672 0.730261 -14.5508
ltibia 29.4377
lfoot -16.4761 5.37053
ltoes -56.5202
889
root -0.37244 18.7493 5.15788 7.49426 1.23718 -1.36421
lowerback 25.6007 -1.37512 0.837814
upperback 11.0797 -1.49363 1.21827
thorax -1.93145 -0.742659 1.2318
lowerneck -24.1635 -0.227051 -0.148074
upperneck 16.8842 -0.316153 0.253604
head 9.27526 -0.126815 0.065914
rclavicle 3.60297e-016 -3.81418e-015
rhumerus 3.82516 79.26 -89.2817
rradius 110.629
rwrist -36.0356
rhand 24.409 -23.0766
rfingers 7.12502
rthumb 48.618 -44.9958
lclavicle 3.60297e-016 -3.81418e-015
lhumerus -51.1146 -62.2418 144.679
lradius 122.459
lwrist 22.8307
lhand 2.73142 -15.6287
lfingers 7.12502
lthumb 28.2039 12.2691
rfemur -2.69887 -1.33978 14.2413
rtibia 2.72031
rfoot -13.7272 -12.2002
rtoes -12.5606
lfemur -20.0727 -0.0502705 -13.6502
ltibia 29.7335
lfoot -16.3433 4.94882
ltoes -56.7031
890
root -0.402163 18.7523 5.1532 7.34692 2.60813 -1.94791
lowerback 25.9274 -1.91162 0.792515
upperback 11.0913 -2.1267 2.04007
thorax -2.02342 -1.07565 2.32559
lowerneck -23.9799 0.226301 0.283062
upperneck 16.3566 0.369633 -0.718202
head 9.06099 0.106705 -0.241157
rclavicle 1.66669e-014 -1.16227e-014
rhumerus -0.260483 77.8769 -94.2908
rradius 110.589
rwrist -35.6828
rhand 24.4405 -23.3423
rfingers 7.12502
rthumb 48.647 -45.2475
lclavicle 1.66669e-014 -1.16227e-014
lhumerus -51.8991 -62.5684 144.801
lradius 122.43
lwrist 23.6703
lhand 3.34306 -14.8934
lfingers 7.12502
lthumb 28.7883 12.9065
rfemur -0.968494 -2.60267 14.9866
rtibia 7.95139e-016
rfoot -12.5866 -12.9189
rtoes -11.9476
lfemur -20.3201 -0.703428 -12.8439
ltibia 29.8695
lfoot -16.2387 4.55072
ltoes -56.8021
891
root -0.424676 18.7572 5.15096 7.26015 3.60673 -2.43734
lowerback 26.1802 -2.28278 0.691169
upperback 11.0674 -2.56825 2.79053
thorax -2.10644 -1.31529 3.32971
lowerneck -23.7379 0.556989 0.364483
upperneck 15.9525 0.940985 -1.41666
head 8.88762 0.299676 -0.413266
rclavicle 5.44173e-015 -1.71452e-014
rhumerus -3.94515 76.7065 -98.608
rradius 110.709
rwrist -35.4272
rhand 24.7912 -23.9392
rfingers 7.12502
rthumb 48.9694 -45.6867
lclavicle 5.44173e-015 -1.71452e-014
lhumerus -51.9401 -63.0363 144.586
lradius 122.337
lwrist 24.3122
lhand 3.78988 -14.3289
lfingers 7.12502
lthumb 29.2151 13.3977
rfemur -0.74033 -3.5195 15.6472
rtibia 1.11319e-014
rfoot -12.4667 -12.8152
rtoes -11.8134
lfemur -20.499 -1.22183 -12.1824
ltibia 29.8787
lfoot -16.1784 4.31756
ltoes -56.8484
892
root -0.442351 18.7628 5.15092 7.26523 4.03515 -2.8308
lowerback 26.2787 -2.41896 0.659769
upperback 11.0081 -2.71489 3.30814
thorax -2.17775 -1.40216 3.95985
lowerneck -23.4416 0.659457 0.262681
upperneck 15.6632 1.207 -1.8725
head 8.74366 0.368668 -0.515713
rclavicle -1.96797e-014 2.60905e-014
rhumerus -6.6801 75.9508 -101.844
rradius 110.606
rwrist -35.1015
rhand 25.497 -23.6651
rfingers 7.12502
rthumb 49.617 -45.0866
lclavicle -1.96797e-014 2.60905e-014
lhumerus -51.5838 -63.6862 144.278
lradius 122.294
lwrist 24.6969
lhand 3.85226 -14.213
lfingers 7.12502
lthumb 29.2746 13.5032
rfemur -0.729404 -3.89364 16.1339
rtibia 7.95139e-016
rfoot -12.2714 -12.7401
rtoes -11.7578
lfemur -20.5885 -1.49585 -11.6678
ltibia 29.7811
lfoot -16.1908 4.34621
ltoes -56.899
893
root -0.455542 18.767 5.15035 7.30528 3.85594 -3.01489
lowerback 26.197 -2.27207 0.624098
upperback 11.0025 -2.53325 3.47634
thorax -2.14618 -1.32005 4.11182
lowerneck -23.5265 0.376249 -0.437847
upperneck 15.9064 0.939055 -1.30639
head 8.83217 0.261443 -0.245898
rclavicle 3.29983e-014 -1.35174e-014
rhumerus -8.0211 75.5637 -103.458
rradius 110.411
rwrist -35.3877
rhand 26.545 -23.58
rfingers 7.12502
rthumb 50.5757 -44.4952
lclavicle 3.29983e-014 -1.35174e-014
lhumerus -50.8064 -64.4188 143.854
lradius 122.176
lwrist 24.8832
lhand 3.53668 -14.4941
lfingers 7.12502
lthumb 28.9733 13.2742
rfemur -0.836601 -3.69432 16.336
rtibia 1.59028e-015
rfoot -12.0491 -12.7193
rtoes -12.0589
lfemur -20.5115 -1.56522 -11.4077
ltibia 29.6153
lfoot -16.3032 4.58335
ltoes -56.7512
894
root -0.461582 18.7696 5.14699 7.41225 3.08316 -2.89759
lowerback 25.9078 -1.83361 0.503516
upperback 11.0703 -2.03294 3.26217
thorax -1.97421 -1.07544 3.79745
lowerneck -23.456 -0.022407 -0.834203
upperneck 15.9028 0.369506 -0.567805
head 8.81296 0.0546997 -0.008211
rclavicle 7.15625e-015 -6.55989e-015
rhumerus -8.60759 75.626 -103.636
rradius 110.334
rwrist -36.3515
rhand 27.6628 -23.9891
rfingers 7.12502
rthumb 51.5939 -44.3328
lclavicle 7.15625e-015 -6.55989e-015
lhumerus -49.8356 -65.0634 143.511
lradius 122.085
lwrist 25.2195
lhand 3.35601 -14.555
lfingers 7.12502
lthumb 28.8007 13.2429
rfemur -1.08201 -2.94949 16.157
rtibia 7.95139e-015
rfoot -11.9449 -12.7658
rtoes -12.5097
lfemur -20.3216 -1.31989 -11.5304
ltibia 29.4072
lfoot -16.4223 4.98436
ltoes -56.6644
895
root -0.467223 18.7718 5.14274 7.56605 1.7729 -2.47867
lowerback 25.5312 -1.16316 0.260518
upperback 11.1506 -1.28667 2.67303
thorax -1.76711 -0.703502 3.08242
lowerneck -23.3964 -0.505284 -1.22316
upperneck 15.8627 -0.409203 0.600917
head 8.79267 -0.200501 0.346799
rclavicle 1.67973e-014 1.07344e-014
rhumerus -8.45085 76.1432 -102.568
rradius 110.231
rwrist -38.0187
rhand 28.7073 -24.8966
rfingers 7.12502
rthumb 52.5411 -44.6753
lclavicle 1.67973e-014 1.07344e-014
lhumerus -48.9552 -65.4212 143.344
lradius 122.13
lwrist 25.6108
lhand 3.4742 -14.4025
lfingers 7.12502
lthumb 28.9136 13.3761
rfemur -1.45893 -1.71497 15.6275
rtibia -7.15625e-015
rfoot -12.0406 -12.8905
rtoes -12.6528
lfemur -20.004 -0.616821 -12.0419
ltibia 29.1162
lfoot -16.4832 5.4696
ltoes -56.7896
896
root -0.477756 18.7722 5.13811 7.62538 0.197505 -1.87388
lowerback 25.2126 -0.40236 -0.0514998
upperback 11.238 -0.446201 1.83567
thorax -1.57173 -0.280196 2.12673
lowerneck -23.3267 -0.983985 -1.59148
upperneck 15.8142 -1.23476 1.98527
head 8.78482 -0.452563 0.765977
rclavicle 1.04362e-015 -4.07509e-015
rhumerus -4.41343 77.0248 -97.9396
rradius 109.475
rwrist -40.8622
rhand 29.637 -26.1954
rfingers 7.12502
rthumb 53.3803 -45.4439
lclavicle 1.04362e-015 -4.07509e-015
lhumerus -48.1756 -65.3533 143.222
lradius 122.216
lwrist 25.6139
lhand 3.77405 -14.4626
lfingers 7.12502
lthumb 29.2 13.2665
rfemur -2.61286 -0.233505 14.9449
rtibia 1.65914
rfoot -12.9073 -12.5554
rtoes -13.022
lfemur -19.528 0.400945 -12.7736
ltibia 28.7929
lfoot -16.4996 5.83253
ltoes -56.9204
